<mxfile host="app.diagrams.net" modified="2020-04-30T05:34:23.601Z" agent="5.0 (Windows NT 10.0; Win64; x64) AppleWebKit/537.36 (KHTML, like Gecko) Chrome/81.0.4044.122 Safari/537.36" etag="m4sVk2NgjSVuKArSBG4H" version="13.0.3" type="github">
  <diagram id="Uld2wgHHkagSajves6w5" name="Page-1">
    <mxGraphModel dx="4506" dy="2161" grid="1" gridSize="10" guides="1" tooltips="1" connect="1" arrows="1" fold="1" page="1" pageScale="1" pageWidth="827" pageHeight="1169" math="0" shadow="0">
      <root>
        <mxCell id="0" />
        <mxCell id="1" parent="0" />
        <mxCell id="8nDx5IEHLrmuxDFwGXn0-1" value="" style="rounded=0;whiteSpace=wrap;html=1;" vertex="1" parent="1">
          <mxGeometry x="-2360" width="200" height="1360" as="geometry" />
        </mxCell>
        <mxCell id="8nDx5IEHLrmuxDFwGXn0-12" value="" style="rounded=1;arcSize=10;dashed=1;strokeColor=#CC0000;fillColor=none;gradientColor=none;dashPattern=8 3 1 3;strokeWidth=2;" vertex="1" parent="1">
          <mxGeometry x="-2080" y="-40" width="1360" height="1480" as="geometry" />
        </mxCell>
        <mxCell id="8nDx5IEHLrmuxDFwGXn0-13" value="" style="rounded=1;arcSize=10;dashed=1;strokeColor=#CC0000;fillColor=none;gradientColor=none;dashPattern=8 3 1 3;strokeWidth=2;" vertex="1" parent="1">
          <mxGeometry x="-2345" y="610" width="170" height="190" as="geometry" />
        </mxCell>
        <mxCell id="8nDx5IEHLrmuxDFwGXn0-14" value="" style="rounded=0;whiteSpace=wrap;html=1;" vertex="1" parent="1">
          <mxGeometry x="-2000" width="230" height="1360" as="geometry" />
        </mxCell>
        <mxCell id="8nDx5IEHLrmuxDFwGXn0-23" value="" style="endArrow=classic;startArrow=classic;html=1;entryX=0;entryY=0.5;entryDx=0;entryDy=0;" edge="1" parent="1">
          <mxGeometry width="50" height="50" relative="1" as="geometry">
            <mxPoint x="-2200" y="980" as="sourcePoint" />
            <mxPoint x="-1970" y="980" as="targetPoint" />
          </mxGeometry>
        </mxCell>
        <mxCell id="8nDx5IEHLrmuxDFwGXn0-24" value="" style="endArrow=classic;startArrow=classic;html=1;entryX=0;entryY=0.5;entryDx=0;entryDy=0;" edge="1" parent="1">
          <mxGeometry width="50" height="50" relative="1" as="geometry">
            <mxPoint x="-2170" y="700" as="sourcePoint" />
            <mxPoint x="-1970" y="699.5" as="targetPoint" />
          </mxGeometry>
        </mxCell>
        <mxCell id="8nDx5IEHLrmuxDFwGXn0-25" value="" style="endArrow=classic;startArrow=classic;html=1;entryX=0;entryY=0.5;entryDx=0;entryDy=0;" edge="1" parent="1">
          <mxGeometry width="50" height="50" relative="1" as="geometry">
            <mxPoint x="-2200" y="409.5" as="sourcePoint" />
            <mxPoint x="-1970" y="409.5" as="targetPoint" />
          </mxGeometry>
        </mxCell>
        <mxCell id="8nDx5IEHLrmuxDFwGXn0-26" value="" style="rounded=0;whiteSpace=wrap;html=1;" vertex="1" parent="1">
          <mxGeometry x="-1510" width="710" height="1400" as="geometry" />
        </mxCell>
        <mxCell id="8nDx5IEHLrmuxDFwGXn0-27" value="" style="rounded=1;whiteSpace=wrap;html=1;shadow=0;fillColor=#999999;" vertex="1" parent="1">
          <mxGeometry x="-1490" y="585" width="250" height="240" as="geometry" />
        </mxCell>
        <mxCell id="8nDx5IEHLrmuxDFwGXn0-28" value="" style="rounded=1;whiteSpace=wrap;html=1;fillColor=#66B2FF;" vertex="1" parent="1">
          <mxGeometry x="-1425" y="615" width="120" height="60" as="geometry" />
        </mxCell>
        <mxCell id="8nDx5IEHLrmuxDFwGXn0-30" value="" style="rounded=1;whiteSpace=wrap;html=1;fillColor=#66B2FF;" vertex="1" parent="1">
          <mxGeometry x="-1425" y="735" width="120" height="60" as="geometry" />
        </mxCell>
        <mxCell id="8nDx5IEHLrmuxDFwGXn0-31" value="" style="rounded=1;whiteSpace=wrap;html=1;shadow=0;fillColor=#999999;" vertex="1" parent="1">
          <mxGeometry x="-1100" y="350" width="250" height="250" as="geometry" />
        </mxCell>
        <mxCell id="8nDx5IEHLrmuxDFwGXn0-32" value="" style="rounded=1;whiteSpace=wrap;html=1;fillColor=#66B2FF;" vertex="1" parent="1">
          <mxGeometry x="-1035" y="385" width="120" height="60" as="geometry" />
        </mxCell>
        <mxCell id="8nDx5IEHLrmuxDFwGXn0-33" value="" style="rounded=1;whiteSpace=wrap;html=1;fillColor=#66B2FF;" vertex="1" parent="1">
          <mxGeometry x="-1035" y="505" width="120" height="60" as="geometry" />
        </mxCell>
        <mxCell id="8nDx5IEHLrmuxDFwGXn0-34" value="" style="rounded=1;whiteSpace=wrap;html=1;shadow=0;fillColor=#999999;" vertex="1" parent="1">
          <mxGeometry x="-1100" y="810" width="250" height="230" as="geometry" />
        </mxCell>
        <mxCell id="8nDx5IEHLrmuxDFwGXn0-35" value="" style="rounded=1;whiteSpace=wrap;html=1;fillColor=#66B2FF;" vertex="1" parent="1">
          <mxGeometry x="-1035" y="835" width="120" height="60" as="geometry" />
        </mxCell>
        <mxCell id="8nDx5IEHLrmuxDFwGXn0-36" value="" style="rounded=1;whiteSpace=wrap;html=1;fillColor=#66B2FF;" vertex="1" parent="1">
          <mxGeometry x="-1035" y="955" width="120" height="60" as="geometry" />
        </mxCell>
        <mxCell id="8nDx5IEHLrmuxDFwGXn0-37" value="" style="rounded=1;whiteSpace=wrap;html=1;fillColor=#66B2FF;" vertex="1" parent="1">
          <mxGeometry x="-2320" y="380" width="120" height="60" as="geometry" />
        </mxCell>
        <mxCell id="8nDx5IEHLrmuxDFwGXn0-38" value="" style="rounded=1;whiteSpace=wrap;html=1;fillColor=#66B2FF;" vertex="1" parent="1">
          <mxGeometry x="-2320" y="630" width="120" height="60" as="geometry" />
        </mxCell>
        <mxCell id="8nDx5IEHLrmuxDFwGXn0-39" value="" style="rounded=1;whiteSpace=wrap;html=1;fillColor=#66B2FF;" vertex="1" parent="1">
          <mxGeometry x="-2320" y="720" width="120" height="60" as="geometry" />
        </mxCell>
        <mxCell id="8nDx5IEHLrmuxDFwGXn0-40" value="" style="rounded=1;whiteSpace=wrap;html=1;fillColor=#66B2FF;" vertex="1" parent="1">
          <mxGeometry x="-2320" y="950" width="120" height="60" as="geometry" />
        </mxCell>
        <mxCell id="8nDx5IEHLrmuxDFwGXn0-41" value="" style="rounded=1;whiteSpace=wrap;html=1;fillColor=#66B2FF;" vertex="1" parent="1">
          <mxGeometry x="-1970" y="380" width="170" height="60" as="geometry" />
        </mxCell>
        <mxCell id="8nDx5IEHLrmuxDFwGXn0-42" value="" style="rounded=1;whiteSpace=wrap;html=1;fillColor=#66B2FF;" vertex="1" parent="1">
          <mxGeometry x="-1970" y="670" width="170" height="60" as="geometry" />
        </mxCell>
        <mxCell id="8nDx5IEHLrmuxDFwGXn0-43" value="" style="rounded=1;whiteSpace=wrap;html=1;fillColor=#66B2FF;" vertex="1" parent="1">
          <mxGeometry x="-1970" y="950" width="170" height="60" as="geometry" />
        </mxCell>
        <mxCell id="8nDx5IEHLrmuxDFwGXn0-44" value="" style="rounded=1;whiteSpace=wrap;html=1;fillColor=#FFFF66;" vertex="1" parent="1">
          <mxGeometry x="-1090" y="657.5" width="240" height="85" as="geometry" />
        </mxCell>
        <mxCell id="8nDx5IEHLrmuxDFwGXn0-46" value="" style="endArrow=block;dashed=1;endFill=0;endSize=12;html=1;" edge="1" parent="1">
          <mxGeometry width="160" relative="1" as="geometry">
            <mxPoint x="-1170" y="704" as="sourcePoint" />
            <mxPoint x="-1090" y="704.33" as="targetPoint" />
          </mxGeometry>
        </mxCell>
        <mxCell id="8nDx5IEHLrmuxDFwGXn0-47" value="" style="endArrow=block;dashed=1;endFill=0;endSize=12;html=1;" edge="1" parent="1">
          <mxGeometry width="160" relative="1" as="geometry">
            <mxPoint x="-1160" y="704" as="sourcePoint" />
            <mxPoint x="-1240" y="704" as="targetPoint" />
          </mxGeometry>
        </mxCell>
        <mxCell id="8nDx5IEHLrmuxDFwGXn0-48" value="" style="endArrow=block;dashed=1;endFill=0;endSize=12;html=1;strokeColor=#000000;fillColor=#000000;" edge="1" parent="1" target="8nDx5IEHLrmuxDFwGXn0-44">
          <mxGeometry width="160" relative="1" as="geometry">
            <mxPoint x="-971" y="620" as="sourcePoint" />
            <mxPoint x="-827" y="600" as="targetPoint" />
          </mxGeometry>
        </mxCell>
        <mxCell id="8nDx5IEHLrmuxDFwGXn0-49" value="" style="endArrow=block;dashed=1;endFill=0;endSize=12;html=1;strokeColor=#000000;fillColor=#000000;entryX=0.5;entryY=1;entryDx=0;entryDy=0;" edge="1" parent="1">
          <mxGeometry width="160" relative="1" as="geometry">
            <mxPoint x="-971" y="630" as="sourcePoint" />
            <mxPoint x="-971" y="600" as="targetPoint" />
          </mxGeometry>
        </mxCell>
        <mxCell id="8nDx5IEHLrmuxDFwGXn0-50" value="" style="endArrow=block;dashed=1;endFill=0;endSize=12;html=1;strokeColor=#000000;fillColor=#000000;" edge="1" parent="1">
          <mxGeometry width="160" relative="1" as="geometry">
            <mxPoint x="-972" y="771" as="sourcePoint" />
            <mxPoint x="-971.53125" y="808.5" as="targetPoint" />
          </mxGeometry>
        </mxCell>
        <mxCell id="8nDx5IEHLrmuxDFwGXn0-52" value="" style="endArrow=block;dashed=1;endFill=0;endSize=12;html=1;strokeColor=#000000;fillColor=#000000;entryX=0.5;entryY=1;entryDx=0;entryDy=0;" edge="1" parent="1">
          <mxGeometry width="160" relative="1" as="geometry">
            <mxPoint x="-972" y="770" as="sourcePoint" />
            <mxPoint x="-972" y="740" as="targetPoint" />
          </mxGeometry>
        </mxCell>
        <mxCell id="8nDx5IEHLrmuxDFwGXn0-54" value="" style="ellipse;whiteSpace=wrap;html=1;aspect=fixed;shadow=0;strokeColor=#33FF33;fillColor=#66FF66;" vertex="1" parent="1">
          <mxGeometry x="-1790" y="375" width="80" height="80" as="geometry" />
        </mxCell>
        <mxCell id="8nDx5IEHLrmuxDFwGXn0-55" value="" style="image;html=1;labelBackgroundColor=#ffffff;image=img/lib/clip_art/networking/UPS_128x128.png;shadow=0;strokeColor=#CC0000;fillColor=#66B2FF;" vertex="1" parent="1">
          <mxGeometry x="-1770" y="390" width="40" height="50" as="geometry" />
        </mxCell>
        <mxCell id="8nDx5IEHLrmuxDFwGXn0-57" value="" style="rounded=1;whiteSpace=wrap;html=1;shadow=0;strokeColor=#3333FF;fillColor=#66FF66;" vertex="1" parent="1">
          <mxGeometry x="-1710" y="385" width="170" height="60" as="geometry" />
        </mxCell>
        <mxCell id="8nDx5IEHLrmuxDFwGXn0-58" value="" style="ellipse;whiteSpace=wrap;html=1;aspect=fixed;shadow=0;strokeColor=#33FF33;fillColor=#66FF66;" vertex="1" parent="1">
          <mxGeometry x="-1790" y="660" width="80" height="80" as="geometry" />
        </mxCell>
        <mxCell id="8nDx5IEHLrmuxDFwGXn0-59" value="" style="image;html=1;labelBackgroundColor=#ffffff;image=img/lib/clip_art/networking/UPS_128x128.png;shadow=0;strokeColor=#CC0000;fillColor=#66B2FF;" vertex="1" parent="1">
          <mxGeometry x="-1770" y="675" width="40" height="50" as="geometry" />
        </mxCell>
        <mxCell id="8nDx5IEHLrmuxDFwGXn0-60" value="" style="rounded=1;whiteSpace=wrap;html=1;shadow=0;strokeColor=#3333FF;fillColor=#66FF66;" vertex="1" parent="1">
          <mxGeometry x="-1710" y="670" width="170" height="60" as="geometry" />
        </mxCell>
        <mxCell id="8nDx5IEHLrmuxDFwGXn0-61" value="" style="ellipse;whiteSpace=wrap;html=1;aspect=fixed;shadow=0;strokeColor=#33FF33;fillColor=#66FF66;" vertex="1" parent="1">
          <mxGeometry x="-1790" y="945" width="80" height="80" as="geometry" />
        </mxCell>
        <mxCell id="8nDx5IEHLrmuxDFwGXn0-62" value="" style="image;html=1;labelBackgroundColor=#ffffff;image=img/lib/clip_art/networking/UPS_128x128.png;shadow=0;strokeColor=#CC0000;fillColor=#66B2FF;" vertex="1" parent="1">
          <mxGeometry x="-1770" y="960" width="40" height="50" as="geometry" />
        </mxCell>
        <mxCell id="8nDx5IEHLrmuxDFwGXn0-63" value="" style="rounded=1;whiteSpace=wrap;html=1;shadow=0;strokeColor=#3333FF;fillColor=#66FF66;" vertex="1" parent="1">
          <mxGeometry x="-1710" y="955" width="170" height="60" as="geometry" />
        </mxCell>
        <mxCell id="8nDx5IEHLrmuxDFwGXn0-64" value="" style="endArrow=block;dashed=1;endFill=0;endSize=12;html=1;" edge="1" parent="1">
          <mxGeometry width="160" relative="1" as="geometry">
            <mxPoint x="-1460" y="414.33" as="sourcePoint" />
            <mxPoint x="-1540" y="414.33" as="targetPoint" />
          </mxGeometry>
        </mxCell>
        <mxCell id="8nDx5IEHLrmuxDFwGXn0-65" value="" style="endArrow=block;dashed=1;endFill=0;endSize=12;html=1;" edge="1" parent="1">
          <mxGeometry width="160" relative="1" as="geometry">
            <mxPoint x="-1460" y="414" as="sourcePoint" />
            <mxPoint x="-1100" y="413.6599999999999" as="targetPoint" />
          </mxGeometry>
        </mxCell>
        <mxCell id="8nDx5IEHLrmuxDFwGXn0-66" value="" style="endArrow=block;dashed=1;endFill=0;endSize=12;html=1;" edge="1" parent="1">
          <mxGeometry width="160" relative="1" as="geometry">
            <mxPoint x="-1460" y="984.67" as="sourcePoint" />
            <mxPoint x="-1100" y="984.3299999999998" as="targetPoint" />
          </mxGeometry>
        </mxCell>
        <mxCell id="8nDx5IEHLrmuxDFwGXn0-67" value="" style="endArrow=block;dashed=1;endFill=0;endSize=12;html=1;" edge="1" parent="1">
          <mxGeometry width="160" relative="1" as="geometry">
            <mxPoint x="-1460" y="984.3299999999999" as="sourcePoint" />
            <mxPoint x="-1540" y="984.3299999999999" as="targetPoint" />
          </mxGeometry>
        </mxCell>
        <mxCell id="8nDx5IEHLrmuxDFwGXn0-68" value="" style="endArrow=block;dashed=1;endFill=0;endSize=12;html=1;" edge="1" parent="1">
          <mxGeometry width="160" relative="1" as="geometry">
            <mxPoint x="-1510" y="704" as="sourcePoint" />
            <mxPoint x="-1540" y="704.33" as="targetPoint" />
          </mxGeometry>
        </mxCell>
        <mxCell id="8nDx5IEHLrmuxDFwGXn0-69" value="" style="endArrow=block;dashed=1;endFill=0;endSize=12;html=1;" edge="1" parent="1">
          <mxGeometry width="160" relative="1" as="geometry">
            <mxPoint x="-1520" y="705" as="sourcePoint" />
            <mxPoint x="-1490" y="704.66" as="targetPoint" />
          </mxGeometry>
        </mxCell>
        <mxCell id="8nDx5IEHLrmuxDFwGXn0-70" value="&lt;font style=&quot;font-size: 14px&quot;&gt;Fabric SDK&lt;/font&gt;" style="text;html=1;strokeColor=none;fillColor=none;align=center;verticalAlign=middle;whiteSpace=wrap;rounded=0;shadow=0;" vertex="1" parent="1">
          <mxGeometry x="-1685" y="405" width="120" height="20" as="geometry" />
        </mxCell>
        <mxCell id="8nDx5IEHLrmuxDFwGXn0-71" value="&lt;font style=&quot;font-size: 14px&quot;&gt;Backend Application&lt;/font&gt;" style="text;html=1;strokeColor=none;fillColor=none;align=center;verticalAlign=middle;whiteSpace=wrap;rounded=0;shadow=0;" vertex="1" parent="1">
          <mxGeometry x="-1945" y="400" width="120" height="20" as="geometry" />
        </mxCell>
        <mxCell id="8nDx5IEHLrmuxDFwGXn0-72" value="&lt;font style=&quot;font-size: 14px&quot;&gt;Backend Application&lt;/font&gt;" style="text;html=1;strokeColor=none;fillColor=none;align=center;verticalAlign=middle;whiteSpace=wrap;rounded=0;shadow=0;" vertex="1" parent="1">
          <mxGeometry x="-1945" y="690" width="120" height="20" as="geometry" />
        </mxCell>
        <mxCell id="8nDx5IEHLrmuxDFwGXn0-73" value="&lt;font style=&quot;font-size: 14px&quot;&gt;Backend Application&lt;/font&gt;" style="text;html=1;strokeColor=none;fillColor=none;align=center;verticalAlign=middle;whiteSpace=wrap;rounded=0;shadow=0;" vertex="1" parent="1">
          <mxGeometry x="-1945" y="970" width="120" height="20" as="geometry" />
        </mxCell>
        <mxCell id="8nDx5IEHLrmuxDFwGXn0-74" value="&lt;font style=&quot;font-size: 14px&quot;&gt;Fabric SDK&lt;/font&gt;" style="text;html=1;strokeColor=none;fillColor=none;align=center;verticalAlign=middle;whiteSpace=wrap;rounded=0;shadow=0;" vertex="1" parent="1">
          <mxGeometry x="-1685" y="690" width="120" height="20" as="geometry" />
        </mxCell>
        <mxCell id="8nDx5IEHLrmuxDFwGXn0-75" value="&lt;font style=&quot;font-size: 14px&quot;&gt;Fabric SDK&lt;/font&gt;" style="text;html=1;strokeColor=none;fillColor=none;align=center;verticalAlign=middle;whiteSpace=wrap;rounded=0;shadow=0;" vertex="1" parent="1">
          <mxGeometry x="-1685" y="975" width="120" height="20" as="geometry" />
        </mxCell>
        <mxCell id="8nDx5IEHLrmuxDFwGXn0-76" value="&lt;font style=&quot;font-size: 14px&quot;&gt;Smart contrat (Chaine code)&lt;/font&gt;" style="text;html=1;strokeColor=none;fillColor=none;align=center;verticalAlign=middle;whiteSpace=wrap;rounded=0;shadow=0;" vertex="1" parent="1">
          <mxGeometry x="-1040" y="695" width="120" height="20" as="geometry" />
        </mxCell>
        <mxCell id="8nDx5IEHLrmuxDFwGXn0-79" value="" style="rounded=1;whiteSpace=wrap;html=1;shadow=0;fillColor=#999999;" vertex="1" parent="1">
          <mxGeometry x="-1105" y="30" width="250" height="250" as="geometry" />
        </mxCell>
        <mxCell id="8nDx5IEHLrmuxDFwGXn0-80" value="" style="rounded=1;whiteSpace=wrap;html=1;fillColor=#66B2FF;" vertex="1" parent="1">
          <mxGeometry x="-1040" y="65" width="120" height="60" as="geometry" />
        </mxCell>
        <mxCell id="8nDx5IEHLrmuxDFwGXn0-81" value="" style="rounded=1;whiteSpace=wrap;html=1;fillColor=#66B2FF;" vertex="1" parent="1">
          <mxGeometry x="-1040" y="185" width="120" height="60" as="geometry" />
        </mxCell>
        <mxCell id="8nDx5IEHLrmuxDFwGXn0-88" value="" style="rounded=1;whiteSpace=wrap;html=1;shadow=0;fillColor=#999999;" vertex="1" parent="1">
          <mxGeometry x="-1095" y="1130" width="250" height="250" as="geometry" />
        </mxCell>
        <mxCell id="8nDx5IEHLrmuxDFwGXn0-89" value="" style="rounded=1;whiteSpace=wrap;html=1;fillColor=#66B2FF;" vertex="1" parent="1">
          <mxGeometry x="-1030" y="1165" width="120" height="60" as="geometry" />
        </mxCell>
        <mxCell id="8nDx5IEHLrmuxDFwGXn0-90" value="" style="rounded=1;whiteSpace=wrap;html=1;fillColor=#66B2FF;" vertex="1" parent="1">
          <mxGeometry x="-1030" y="1285" width="120" height="60" as="geometry" />
        </mxCell>
        <mxCell id="8nDx5IEHLrmuxDFwGXn0-92" value="" style="endArrow=classic;startArrow=classic;html=1;entryX=0;entryY=0.5;entryDx=0;entryDy=0;" edge="1" parent="1">
          <mxGeometry width="50" height="50" relative="1" as="geometry">
            <mxPoint x="-2195" y="1275" as="sourcePoint" />
            <mxPoint x="-1965" y="1275" as="targetPoint" />
          </mxGeometry>
        </mxCell>
        <mxCell id="8nDx5IEHLrmuxDFwGXn0-93" value="" style="rounded=1;whiteSpace=wrap;html=1;fillColor=#66B2FF;" vertex="1" parent="1">
          <mxGeometry x="-2315" y="1245" width="120" height="60" as="geometry" />
        </mxCell>
        <mxCell id="8nDx5IEHLrmuxDFwGXn0-94" value="" style="rounded=1;whiteSpace=wrap;html=1;fillColor=#66B2FF;" vertex="1" parent="1">
          <mxGeometry x="-1965" y="1245" width="170" height="60" as="geometry" />
        </mxCell>
        <mxCell id="8nDx5IEHLrmuxDFwGXn0-95" value="" style="ellipse;whiteSpace=wrap;html=1;aspect=fixed;shadow=0;strokeColor=#33FF33;fillColor=#66FF66;" vertex="1" parent="1">
          <mxGeometry x="-1785" y="1240" width="80" height="80" as="geometry" />
        </mxCell>
        <mxCell id="8nDx5IEHLrmuxDFwGXn0-96" value="" style="image;html=1;labelBackgroundColor=#ffffff;image=img/lib/clip_art/networking/UPS_128x128.png;shadow=0;strokeColor=#CC0000;fillColor=#66B2FF;" vertex="1" parent="1">
          <mxGeometry x="-1765" y="1255" width="40" height="50" as="geometry" />
        </mxCell>
        <mxCell id="8nDx5IEHLrmuxDFwGXn0-97" value="" style="rounded=1;whiteSpace=wrap;html=1;shadow=0;strokeColor=#3333FF;fillColor=#66FF66;" vertex="1" parent="1">
          <mxGeometry x="-1705" y="1250" width="170" height="60" as="geometry" />
        </mxCell>
        <mxCell id="8nDx5IEHLrmuxDFwGXn0-98" value="" style="endArrow=block;dashed=1;endFill=0;endSize=12;html=1;" edge="1" parent="1">
          <mxGeometry width="160" relative="1" as="geometry">
            <mxPoint x="-1455" y="1279.33" as="sourcePoint" />
            <mxPoint x="-1535" y="1279.33" as="targetPoint" />
          </mxGeometry>
        </mxCell>
        <mxCell id="8nDx5IEHLrmuxDFwGXn0-99" value="&lt;font style=&quot;font-size: 14px&quot;&gt;Backend Application&lt;/font&gt;" style="text;html=1;strokeColor=none;fillColor=none;align=center;verticalAlign=middle;whiteSpace=wrap;rounded=0;shadow=0;" vertex="1" parent="1">
          <mxGeometry x="-1940" y="1265" width="120" height="20" as="geometry" />
        </mxCell>
        <mxCell id="8nDx5IEHLrmuxDFwGXn0-100" value="&lt;font style=&quot;font-size: 14px&quot;&gt;Fabric SDK&lt;/font&gt;" style="text;html=1;strokeColor=none;fillColor=none;align=center;verticalAlign=middle;whiteSpace=wrap;rounded=0;shadow=0;" vertex="1" parent="1">
          <mxGeometry x="-1680" y="1270" width="120" height="20" as="geometry" />
        </mxCell>
        <mxCell id="8nDx5IEHLrmuxDFwGXn0-101" value="" style="endArrow=block;dashed=1;endFill=0;endSize=12;html=1;" edge="1" parent="1">
          <mxGeometry width="160" relative="1" as="geometry">
            <mxPoint x="-1458" y="1279.67" as="sourcePoint" />
            <mxPoint x="-1098" y="1279.33" as="targetPoint" />
          </mxGeometry>
        </mxCell>
        <mxCell id="8nDx5IEHLrmuxDFwGXn0-102" value="" style="endArrow=classic;startArrow=classic;html=1;entryX=0;entryY=0.5;entryDx=0;entryDy=0;" edge="1" parent="1">
          <mxGeometry width="50" height="50" relative="1" as="geometry">
            <mxPoint x="-2205" y="139.5" as="sourcePoint" />
            <mxPoint x="-1975" y="139.5" as="targetPoint" />
          </mxGeometry>
        </mxCell>
        <mxCell id="8nDx5IEHLrmuxDFwGXn0-103" value="" style="rounded=1;whiteSpace=wrap;html=1;fillColor=#66B2FF;" vertex="1" parent="1">
          <mxGeometry x="-2325" y="110" width="120" height="60" as="geometry" />
        </mxCell>
        <mxCell id="8nDx5IEHLrmuxDFwGXn0-104" value="" style="rounded=1;whiteSpace=wrap;html=1;fillColor=#66B2FF;" vertex="1" parent="1">
          <mxGeometry x="-1975" y="110" width="170" height="60" as="geometry" />
        </mxCell>
        <mxCell id="8nDx5IEHLrmuxDFwGXn0-105" value="" style="ellipse;whiteSpace=wrap;html=1;aspect=fixed;shadow=0;strokeColor=#33FF33;fillColor=#66FF66;" vertex="1" parent="1">
          <mxGeometry x="-1795" y="105" width="80" height="80" as="geometry" />
        </mxCell>
        <mxCell id="8nDx5IEHLrmuxDFwGXn0-106" value="" style="image;html=1;labelBackgroundColor=#ffffff;image=img/lib/clip_art/networking/UPS_128x128.png;shadow=0;strokeColor=#CC0000;fillColor=#66B2FF;" vertex="1" parent="1">
          <mxGeometry x="-1775" y="120" width="40" height="50" as="geometry" />
        </mxCell>
        <mxCell id="8nDx5IEHLrmuxDFwGXn0-107" value="" style="rounded=1;whiteSpace=wrap;html=1;shadow=0;strokeColor=#3333FF;fillColor=#66FF66;" vertex="1" parent="1">
          <mxGeometry x="-1715" y="115" width="170" height="60" as="geometry" />
        </mxCell>
        <mxCell id="8nDx5IEHLrmuxDFwGXn0-108" value="" style="endArrow=block;dashed=1;endFill=0;endSize=12;html=1;" edge="1" parent="1">
          <mxGeometry width="160" relative="1" as="geometry">
            <mxPoint x="-1465" y="144.32999999999993" as="sourcePoint" />
            <mxPoint x="-1545" y="144.32999999999993" as="targetPoint" />
          </mxGeometry>
        </mxCell>
        <mxCell id="8nDx5IEHLrmuxDFwGXn0-109" value="" style="endArrow=block;dashed=1;endFill=0;endSize=12;html=1;" edge="1" parent="1">
          <mxGeometry width="160" relative="1" as="geometry">
            <mxPoint x="-1465" y="144" as="sourcePoint" />
            <mxPoint x="-1105" y="143.65999999999985" as="targetPoint" />
          </mxGeometry>
        </mxCell>
        <mxCell id="8nDx5IEHLrmuxDFwGXn0-110" value="&lt;font style=&quot;font-size: 14px&quot;&gt;Fabric SDK&lt;/font&gt;" style="text;html=1;strokeColor=none;fillColor=none;align=center;verticalAlign=middle;whiteSpace=wrap;rounded=0;shadow=0;" vertex="1" parent="1">
          <mxGeometry x="-1690" y="135" width="120" height="20" as="geometry" />
        </mxCell>
        <mxCell id="8nDx5IEHLrmuxDFwGXn0-111" value="&lt;font style=&quot;font-size: 14px&quot;&gt;Backend Application&lt;/font&gt;" style="text;html=1;strokeColor=none;fillColor=none;align=center;verticalAlign=middle;whiteSpace=wrap;rounded=0;shadow=0;" vertex="1" parent="1">
          <mxGeometry x="-1950" y="130" width="120" height="20" as="geometry" />
        </mxCell>
        <mxCell id="8nDx5IEHLrmuxDFwGXn0-112" value="" style="endArrow=block;dashed=1;endFill=0;endSize=12;html=1;" edge="1" parent="1">
          <mxGeometry width="160" relative="1" as="geometry">
            <mxPoint x="-820" y="139" as="sourcePoint" />
            <mxPoint x="-855" y="139.33000000000004" as="targetPoint" />
          </mxGeometry>
        </mxCell>
        <mxCell id="8nDx5IEHLrmuxDFwGXn0-113" value="" style="endArrow=block;dashed=1;endFill=0;endSize=12;html=1;" edge="1" parent="1" target="8nDx5IEHLrmuxDFwGXn0-44">
          <mxGeometry width="160" relative="1" as="geometry">
            <mxPoint x="-820" y="140" as="sourcePoint" />
            <mxPoint x="-845" y="700.3299999999999" as="targetPoint" />
            <Array as="points">
              <mxPoint x="-820" y="700" />
            </Array>
          </mxGeometry>
        </mxCell>
        <mxCell id="8nDx5IEHLrmuxDFwGXn0-114" value="" style="endArrow=block;dashed=1;endFill=0;endSize=12;html=1;" edge="1" parent="1">
          <mxGeometry width="160" relative="1" as="geometry">
            <mxPoint x="-815" y="718" as="sourcePoint" />
            <mxPoint x="-840" y="1278.33" as="targetPoint" />
            <Array as="points">
              <mxPoint x="-815" y="1278" />
            </Array>
          </mxGeometry>
        </mxCell>
        <mxCell id="8nDx5IEHLrmuxDFwGXn0-115" value="" style="endArrow=block;dashed=1;endFill=0;endSize=12;html=1;" edge="1" parent="1">
          <mxGeometry width="160" relative="1" as="geometry">
            <mxPoint x="-814" y="720" as="sourcePoint" />
            <mxPoint x="-849" y="720.3299999999999" as="targetPoint" />
          </mxGeometry>
        </mxCell>
        <mxCell id="8nDx5IEHLrmuxDFwGXn0-116" value="&lt;font style=&quot;font-size: 14px&quot;&gt;Grossiste Web Page&lt;/font&gt;" style="text;html=1;strokeColor=none;fillColor=none;align=center;verticalAlign=middle;whiteSpace=wrap;rounded=0;shadow=0;" vertex="1" parent="1">
          <mxGeometry x="-2325" y="130" width="120" height="20" as="geometry" />
        </mxCell>
        <mxCell id="8nDx5IEHLrmuxDFwGXn0-117" value="&lt;font style=&quot;font-size: 14px&quot;&gt;Logistique Web Page&lt;/font&gt;" style="text;html=1;strokeColor=none;fillColor=none;align=center;verticalAlign=middle;whiteSpace=wrap;rounded=0;shadow=0;" vertex="1" parent="1">
          <mxGeometry x="-2325" y="400" width="120" height="20" as="geometry" />
        </mxCell>
        <mxCell id="8nDx5IEHLrmuxDFwGXn0-118" value="&lt;font style=&quot;font-size: 14px&quot;&gt;Stories Web Page&lt;/font&gt;" style="text;html=1;strokeColor=none;fillColor=none;align=center;verticalAlign=middle;whiteSpace=wrap;rounded=0;shadow=0;" vertex="1" parent="1">
          <mxGeometry x="-2320" y="650" width="120" height="20" as="geometry" />
        </mxCell>
        <mxCell id="8nDx5IEHLrmuxDFwGXn0-119" value="&lt;font style=&quot;font-size: 14px&quot;&gt;Client&amp;nbsp; Web Page&lt;/font&gt;" style="text;html=1;strokeColor=none;fillColor=none;align=center;verticalAlign=middle;whiteSpace=wrap;rounded=0;shadow=0;" vertex="1" parent="1">
          <mxGeometry x="-2320" y="740" width="120" height="20" as="geometry" />
        </mxCell>
        <mxCell id="8nDx5IEHLrmuxDFwGXn0-120" value="&lt;font style=&quot;font-size: 14px&quot;&gt;Manufacture Web Page&lt;/font&gt;" style="text;html=1;strokeColor=none;fillColor=none;align=center;verticalAlign=middle;whiteSpace=wrap;rounded=0;shadow=0;" vertex="1" parent="1">
          <mxGeometry x="-2315" y="1265" width="120" height="20" as="geometry" />
        </mxCell>
        <mxCell id="8nDx5IEHLrmuxDFwGXn0-121" value="&lt;font style=&quot;font-size: 14px&quot;&gt;Agriculteur Web Page&lt;/font&gt;" style="text;html=1;strokeColor=none;fillColor=none;align=center;verticalAlign=middle;whiteSpace=wrap;rounded=0;shadow=0;" vertex="1" parent="1">
          <mxGeometry x="-2325" y="970" width="120" height="20" as="geometry" />
        </mxCell>
        <mxCell id="8nDx5IEHLrmuxDFwGXn0-122" value="&lt;font style=&quot;font-size: 14px&quot;&gt;Fabric Peer&amp;nbsp;&lt;br&gt;CA&lt;br&gt;&lt;/font&gt;" style="text;html=1;strokeColor=none;fillColor=none;align=center;verticalAlign=middle;whiteSpace=wrap;rounded=0;shadow=0;" vertex="1" parent="1">
          <mxGeometry x="-1425" y="640" width="120" height="20" as="geometry" />
        </mxCell>
        <mxCell id="8nDx5IEHLrmuxDFwGXn0-123" value="&lt;font style=&quot;font-size: 14px&quot;&gt;Fabric Peer&amp;nbsp;&lt;br&gt;&lt;/font&gt;" style="text;html=1;strokeColor=none;fillColor=none;align=center;verticalAlign=middle;whiteSpace=wrap;rounded=0;shadow=0;" vertex="1" parent="1">
          <mxGeometry x="-1425" y="755" width="120" height="20" as="geometry" />
        </mxCell>
        <mxCell id="8nDx5IEHLrmuxDFwGXn0-124" value="&lt;font style=&quot;font-size: 14px&quot;&gt;Fabric Peer&amp;nbsp;&lt;br&gt;CA&lt;br&gt;&lt;/font&gt;" style="text;html=1;strokeColor=none;fillColor=none;align=center;verticalAlign=middle;whiteSpace=wrap;rounded=0;shadow=0;" vertex="1" parent="1">
          <mxGeometry x="-1040" y="860" width="120" height="20" as="geometry" />
        </mxCell>
        <mxCell id="8nDx5IEHLrmuxDFwGXn0-125" value="&lt;font style=&quot;font-size: 14px&quot;&gt;Fabric Peer&amp;nbsp;&lt;br&gt;CA&lt;br&gt;&lt;/font&gt;" style="text;html=1;strokeColor=none;fillColor=none;align=center;verticalAlign=middle;whiteSpace=wrap;rounded=0;shadow=0;" vertex="1" parent="1">
          <mxGeometry x="-1030" y="1190" width="120" height="20" as="geometry" />
        </mxCell>
        <mxCell id="8nDx5IEHLrmuxDFwGXn0-126" value="&lt;font style=&quot;font-size: 14px&quot;&gt;Fabric Peer&amp;nbsp;&lt;br&gt;CA&lt;br&gt;&lt;/font&gt;" style="text;html=1;strokeColor=none;fillColor=none;align=center;verticalAlign=middle;whiteSpace=wrap;rounded=0;shadow=0;" vertex="1" parent="1">
          <mxGeometry x="-1030" y="405" width="120" height="20" as="geometry" />
        </mxCell>
        <mxCell id="8nDx5IEHLrmuxDFwGXn0-127" value="&lt;font style=&quot;font-size: 14px&quot;&gt;Fabric Peer&amp;nbsp;&lt;br&gt;&lt;/font&gt;" style="text;html=1;strokeColor=none;fillColor=none;align=center;verticalAlign=middle;whiteSpace=wrap;rounded=0;shadow=0;" vertex="1" parent="1">
          <mxGeometry x="-1030" y="525" width="120" height="20" as="geometry" />
        </mxCell>
        <mxCell id="8nDx5IEHLrmuxDFwGXn0-128" value="&lt;font style=&quot;font-size: 14px&quot;&gt;Fabric Peer&amp;nbsp;&lt;br&gt;&lt;/font&gt;" style="text;html=1;strokeColor=none;fillColor=none;align=center;verticalAlign=middle;whiteSpace=wrap;rounded=0;shadow=0;" vertex="1" parent="1">
          <mxGeometry x="-1040" y="975" width="120" height="20" as="geometry" />
        </mxCell>
        <mxCell id="8nDx5IEHLrmuxDFwGXn0-129" value="&lt;font style=&quot;font-size: 14px&quot;&gt;Fabric Peer&amp;nbsp;&lt;br&gt;&lt;/font&gt;" style="text;html=1;strokeColor=none;fillColor=none;align=center;verticalAlign=middle;whiteSpace=wrap;rounded=0;shadow=0;" vertex="1" parent="1">
          <mxGeometry x="-1030" y="1305" width="120" height="20" as="geometry" />
        </mxCell>
        <mxCell id="8nDx5IEHLrmuxDFwGXn0-130" value="&lt;font style=&quot;font-size: 14px&quot;&gt;Fabric Peer&amp;nbsp;&lt;br&gt;&lt;/font&gt;" style="text;html=1;strokeColor=none;fillColor=none;align=center;verticalAlign=middle;whiteSpace=wrap;rounded=0;shadow=0;" vertex="1" parent="1">
          <mxGeometry x="-1040" y="205" width="120" height="20" as="geometry" />
        </mxCell>
        <mxCell id="8nDx5IEHLrmuxDFwGXn0-131" value="&lt;font style=&quot;font-size: 14px&quot;&gt;Fabric Peer&amp;nbsp;&lt;br&gt;CA&lt;br&gt;&lt;/font&gt;" style="text;html=1;strokeColor=none;fillColor=none;align=center;verticalAlign=middle;whiteSpace=wrap;rounded=0;shadow=0;" vertex="1" parent="1">
          <mxGeometry x="-1040" y="90" width="120" height="20" as="geometry" />
        </mxCell>
        <mxCell id="8nDx5IEHLrmuxDFwGXn0-132" value="&lt;font style=&quot;font-size: 18px&quot;&gt;Centre de distribution grossiste&lt;/font&gt;" style="text;html=1;strokeColor=none;fillColor=none;align=center;verticalAlign=middle;whiteSpace=wrap;rounded=0;shadow=0;" vertex="1" parent="1">
          <mxGeometry x="-1105" y="290" width="275" height="20" as="geometry" />
        </mxCell>
        <mxCell id="8nDx5IEHLrmuxDFwGXn0-133" value="&lt;font style=&quot;font-size: 18px&quot;&gt;Magasin&lt;/font&gt;" style="text;html=1;strokeColor=none;fillColor=none;align=center;verticalAlign=middle;whiteSpace=wrap;rounded=0;shadow=0;" vertex="1" parent="1">
          <mxGeometry x="-1490" y="840" width="275" height="20" as="geometry" />
        </mxCell>
        <mxCell id="8nDx5IEHLrmuxDFwGXn0-134" value="&lt;span style=&quot;font-size: 18px&quot;&gt;Agriculteur&lt;/span&gt;" style="text;html=1;strokeColor=none;fillColor=none;align=center;verticalAlign=middle;whiteSpace=wrap;rounded=0;shadow=0;" vertex="1" parent="1">
          <mxGeometry x="-1105" y="1060" width="275" height="20" as="geometry" />
        </mxCell>
        <mxCell id="8nDx5IEHLrmuxDFwGXn0-137" value="&lt;font style=&quot;font-size: 18px&quot;&gt;Logistique (Compagnie de transport)&lt;/font&gt;" style="text;html=1;strokeColor=none;fillColor=none;align=center;verticalAlign=middle;whiteSpace=wrap;rounded=0;shadow=0;" vertex="1" parent="1">
          <mxGeometry x="-1350" y="485" width="275" height="20" as="geometry" />
        </mxCell>
        <mxCell id="8nDx5IEHLrmuxDFwGXn0-138" value="&lt;font style=&quot;font-size: 18px&quot;&gt;Manufacture (Industrie de transformation)&lt;/font&gt;" style="text;html=1;strokeColor=none;fillColor=none;align=center;verticalAlign=middle;whiteSpace=wrap;rounded=0;shadow=0;" vertex="1" parent="1">
          <mxGeometry x="-1350" y="1345" width="275" height="20" as="geometry" />
        </mxCell>
      </root>
    </mxGraphModel>
  </diagram>
</mxfile>
